<svg width="66" height="97" viewBox="0 0 66 97" fill="none" xmlns="http://www.w3.org/2000/svg">
<path d="M54.4579 47.1176C55.9479 46.8196 57.5136 46.5762 59.1347 47.184C60.7426 47.787 62.1453 49.121 63.6845 51.2758C65.4698 53.7753 65.6287 56.4605 65.1142 58.7758C64.608 61.0534 63.4459 63.0275 62.4774 64.3188C61.884 65.11 60.9435 65.889 59.9188 66.5688C58.9538 67.209 57.8273 67.8155 56.6581 68.3129C57.5264 71.0171 57.933 75.5353 54.6952 79.2358C53.4841 80.6199 52.1849 81.7074 50.9227 82.5512C50.9998 84.299 50.7848 86.8747 49.8876 89.3227C48.9451 91.894 47.1694 94.5186 43.994 95.6733C36.9834 98.2225 27.0575 96.9233 19.6766 93.2329C16.3477 91.5683 14.9229 88.9319 14.6444 86.311C14.3767 83.7913 15.1675 81.3568 16.1044 79.8344C16.5386 79.1291 17.4624 78.9091 18.1679 79.3432C18.8733 79.7774 19.0931 80.7012 18.6591 81.4067C18.0141 82.4547 17.4408 84.2325 17.6278 85.9936C17.8041 87.6534 18.6533 89.3666 21.0184 90.5493C27.8739 93.977 36.9302 95.0501 42.9696 92.854C45.014 92.1103 46.3033 90.3854 47.0712 88.2905C47.5813 86.8986 47.8242 85.4293 47.9052 84.184C46.6572 84.7099 45.5833 84.9845 44.8544 85.0756C44.0324 85.1784 43.2824 84.5949 43.1796 83.7729C43.0768 82.9509 43.6603 82.2009 44.4823 82.0981C45.7206 81.9433 49.3717 80.7638 52.4374 77.2602C54.735 74.6342 54.4672 71.2883 53.8134 69.2573C53.3479 69.3648 52.8844 69.4482 52.4296 69.4975C51.168 69.6341 49.7842 69.5425 48.6415 68.8569C46.7236 67.706 45.8577 65.9954 45.6298 64.3676C45.4116 62.8085 45.769 61.2863 46.3319 60.3012C46.743 59.5822 47.6596 59.3326 48.3788 59.7436C49.0976 60.1547 49.3471 61.0704 48.9364 61.7895C48.7085 62.1884 48.4729 63.0394 48.6005 63.9516C48.7186 64.7954 49.1377 65.656 50.1854 66.2846C50.5256 66.4887 51.1446 66.6194 52.1073 66.5151C53.0406 66.4139 54.1243 66.1089 55.2255 65.6616C56.3205 65.2167 57.3814 64.6521 58.2606 64.0688C59.1638 63.4696 59.7807 62.9131 60.077 62.518C60.888 61.4367 61.8018 59.8516 62.1854 58.1254C62.5607 56.4368 62.4236 54.6727 61.2431 53.02C59.8164 51.0226 58.8457 50.2804 58.0809 49.9936C57.3294 49.7119 56.5223 49.7649 55.0468 50.06C54.2345 50.2225 53.4437 49.6955 53.2811 48.8833C53.1187 48.071 53.6457 47.2802 54.4579 47.1176Z" fill="#D643FF"/>
<path d="M28.835 2.39012C31.0789 0.199512 35.026 -0.575718 38.3194 0.442857C40.0312 0.972269 41.6434 2.00537 42.7843 3.65477C43.9274 5.3076 44.5189 7.46542 44.3868 10.1069C44.0546 16.7509 42.3765 26.5756 40.8487 34.3042C42.0806 33.4443 44.1518 32.6298 46.5138 32.8755C48.9578 33.1298 51.5126 34.4992 53.628 37.6723C55.775 40.8929 56.1876 44.5331 55.8897 47.6772C55.5926 50.813 54.5792 53.5846 53.7032 55.227C52.6664 57.2906 50.7943 60.1522 48.4913 61.8403C47.3204 62.6986 45.8947 63.3576 44.3214 63.2817C42.6949 63.2032 41.2141 62.3562 39.9483 60.8091C37.4083 57.7046 37.3872 54.2234 38.2979 51.3013C39.1931 48.4291 41.0101 45.9729 42.421 44.562C43.0067 43.9764 43.9563 43.9766 44.5421 44.562C45.1279 45.1478 45.1279 46.0983 44.5421 46.6841C43.3826 47.8437 41.8784 49.8958 41.1622 52.1938C40.4615 54.4422 40.5388 56.7941 42.2696 58.9097C43.1391 59.9724 43.8879 60.2577 44.4659 60.2856C45.0972 60.3161 45.8522 60.0549 46.7179 59.4204C48.4747 58.1325 50.094 55.7384 51.0382 53.8501L51.0557 53.8149C51.7616 52.4915 52.6469 50.1011 52.9034 47.394C53.159 44.6955 52.7812 41.8103 51.1319 39.3364C49.451 36.8151 47.6544 36.0099 46.2032 35.8589C44.703 35.7029 43.3593 36.2255 42.6046 36.7388C41.8253 37.3815 39.855 39.6209 39.005 43.021C38.8054 43.8187 38.001 44.3069 37.2013 44.1157C36.4013 43.9243 35.9047 43.1246 36.088 42.3227C37.6706 35.3987 40.9235 19.3012 41.3907 9.95653C41.4958 7.85293 41.0195 6.37722 40.3165 5.36083C39.6111 4.34105 38.5978 3.66843 37.4327 3.30809C35.0003 2.55601 32.225 3.24235 30.8995 4.56786C30.8604 4.60696 30.8187 4.64366 30.7755 4.67821C29.2885 5.86793 25.671 11.0903 26.587 21.1665C27.5366 31.6119 28.1699 39.3699 28.3682 41.9487C28.4277 42.7219 27.8877 43.4128 27.1231 43.5425C26.3588 43.6719 25.6218 43.198 25.4229 42.4487L17.7354 13.477C17.2917 12.3496 16.3757 10.7228 15.0899 9.50438C13.7999 8.28205 12.2945 7.59647 10.5577 7.94383C9.28046 8.19928 8.34629 8.65939 7.66024 9.25536C6.97734 9.84866 6.46613 10.6411 6.12997 11.6802C5.43809 13.8187 5.51825 16.9116 6.39168 20.9878C7.72981 27.2323 12.5318 39.0084 15.1807 44.9868C15.5272 44.9214 15.8695 44.8696 16.2071 44.8325C19.9602 44.4204 23.4797 45.7615 24.6925 48.5913C25.912 51.4372 24.5397 54.4712 23.002 56.7651C22.4995 57.5147 21.9399 58.243 21.3663 58.9321C24.4086 58.6702 26.9269 59.464 28.9708 60.8393C31.9592 62.8503 33.7332 65.9722 34.752 68.1118C35.1082 68.8597 34.7909 69.7556 34.0431 70.1118C33.2951 70.468 32.3992 70.1498 32.0431 69.4018C31.0847 67.3893 29.5963 64.8766 27.296 63.3286C25.1079 61.8563 21.9847 61.1214 17.3595 63.0259C16.6983 63.298 15.9367 63.0661 15.5401 62.4712C15.1436 61.8764 15.2223 61.0842 15.7276 60.5786C17.1266 59.1796 19.0976 57.2024 20.5108 55.0942C21.9883 52.89 22.4945 51.0793 21.9347 49.7729C21.4624 48.6711 19.6319 47.4748 16.5343 47.8149C13.5596 48.1417 9.71841 49.9251 6.07723 54.2944C3.35202 57.5647 2.76172 60.4198 3.07625 62.936C3.40294 65.5492 4.72286 67.9768 6.19637 70.3345C7.5103 72.4367 10.1166 74.8104 13.4161 76.8188C16.6959 78.8152 20.5142 80.3604 24.1348 80.9175C24.9536 81.0434 25.5156 81.8097 25.3897 82.6284C25.2638 83.4471 24.4975 84.0092 23.6788 83.8833C19.5882 83.254 15.3982 81.5371 11.8565 79.3813C8.33444 77.2375 5.30444 74.5684 3.65243 71.9253C2.16019 69.5377 0.514518 66.6264 0.0996922 63.3081C-0.327248 59.8926 0.566059 56.2224 3.77254 52.3745C6.51031 49.0892 9.45977 46.9927 12.2813 45.8481C9.60142 39.7638 4.84105 28.0705 3.45809 21.6167C2.55203 17.3884 2.33613 13.6598 3.27547 10.7563C3.7549 9.27457 4.54039 7.99054 5.69247 6.98973C6.84158 5.99151 8.28113 5.33919 9.96981 5.00145C12.9782 4.39998 15.4282 5.6919 17.1534 7.32665C18.753 8.84246 19.8612 10.7608 20.4503 12.1821L20.5616 12.4595L20.6114 12.6128L23.9268 25.1118C23.8213 23.9299 23.7147 22.7035 23.5997 21.438C22.6264 10.7316 26.366 4.42405 28.835 2.39012Z" fill="#D643FF"/>
</svg>
